<?xml version="1.0" standalone="no"?>
<!DOCTYPE svg PUBLIC "-//W3C//DTD SVG 20010904//EN"
 "http://www.w3.org/TR/2001/REC-SVG-20010904/DTD/svg10.dtd">
<svg version="1.0" xmlns="http://www.w3.org/2000/svg"
 width="616.000000pt" height="616.000000pt" viewBox="0 0 616.000000 616.000000"
 preserveAspectRatio="xMidYMid meet">
<metadata>
Created by potrace 1.11, written by Peter Selinger 2001-2013
</metadata>
<g transform="translate(0.000000,616.000000) scale(0.100000,-0.100000)"
fill="#000000" stroke="none">
<path d="M2879 6156 c-2 -2 -41 -7 -85 -10 -45 -4 -93 -9 -105 -11 -13 -2 -42
-6 -64 -9 -57 -7 -184 -33 -300 -62 -537 -134 -1022 -409 -1415 -804 -153
-154 -203 -210 -293 -332 -211 -286 -370 -596 -473 -923 -37 -114 -81 -292
-91 -358 -3 -21 -6 -44 -7 -50 -14 -65 -22 -129 -34 -242 -14 -143 -5 -602 13
-657 2 -7 6 -33 9 -58 3 -25 8 -57 11 -72 3 -16 7 -38 9 -50 2 -13 7 -41 11
-63 37 -203 139 -500 256 -741 290 -598 827 -1127 1434 -1414 81 -38 304 -129
330 -135 5 -1 48 -13 95 -28 102 -31 223 -64 270 -72 116 -21 201 -34 245 -40
28 -3 66 -8 85 -11 113 -16 537 -10 683 11 229 33 368 63 542 118 846 268
1530 881 1891 1694 111 252 206 580 230 798 3 33 8 63 10 66 24 41 24 727 0
769 -2 3 -6 28 -10 57 -3 28 -8 57 -10 65 -3 7 -7 29 -10 48 -4 29 -28 145
-41 200 -52 219 -180 535 -308 760 -149 261 -294 450 -506 660 -443 439 -965
717 -1580 841 -53 11 -103 21 -111 23 -8 2 -46 7 -85 11 -38 4 -83 9 -100 12
-35 5 -491 13 -496 9z"/>
</g>
</svg>
