<?xml version="1.0" standalone="no"?>
<!DOCTYPE svg PUBLIC "-//W3C//DTD SVG 20010904//EN"
 "http://www.w3.org/TR/2001/REC-SVG-20010904/DTD/svg10.dtd">
<svg version="1.0" xmlns="http://www.w3.org/2000/svg"
 width="463.000000pt" height="463.000000pt" viewBox="0 0 463.000000 463.000000"
 preserveAspectRatio="xMidYMid meet">
<metadata>
Created by potrace 1.11, written by Peter Selinger 2001-2013
</metadata>
<g transform="translate(0.000000,463.000000) scale(0.100000,-0.100000)"
fill="#000000" stroke="none">
<path d="M815 3849 c-188 -23 -325 -88 -451 -213 -214 -214 -327 -508 -339
-887 -4 -111 -3 -119 24 -175 48 -99 101 -144 193 -163 31 -7 146 -14 255 -16
326 -6 443 -14 542 -36 120 -27 190 -101 209 -222 10 -60 8 -400 -2 -487 -24
-203 -113 -306 -263 -303 -61 2 -140 40 -180 88 -65 76 -99 208 -89 347 19
281 19 303 3 335 -28 54 -81 61 -429 63 -222 1 -248 -5 -267 -62 -19 -59 -6
-458 20 -598 47 -258 217 -526 388 -611 14 -7 37 -21 51 -30 25 -16 130 -58
163 -65 10 -2 26 -5 35 -8 46 -13 109 -19 232 -20 211 -3 394 31 569 105 165
71 248 136 294 232 55 112 56 133 62 822 4 603 5 595 -70 670 -24 24 -65 55
-92 68 -70 36 -229 85 -298 92 -33 3 -73 8 -90 10 -28 4 -108 9 -287 20 -43 2
-95 7 -115 11 -171 32 -212 254 -78 412 62 72 153 103 289 97 99 -4 144 -17
371 -107 110 -44 223 -88 250 -98 28 -10 82 -30 120 -45 99 -37 416 -126 500
-140 146 -25 258 -25 395 1 142 26 328 73 470 120 183 61 234 74 355 92 133
21 201 25 440 27 265 2 279 5 311 67 57 111 -26 247 -199 328 -112 52 -166 61
-347 60 -218 -1 -236 -4 -475 -71 -99 -27 -187 -52 -195 -54 -8 -2 -46 -14
-85 -25 -283 -87 -336 -99 -440 -95 -99 3 -123 6 -200 27 -22 6 -44 11 -50 12
-24 5 -130 48 -188 77 -34 18 -120 56 -192 84 -71 29 -196 80 -276 113 -128
52 -272 101 -350 118 -154 34 -370 48 -494 33z"/>
<path d="M2150 2562 c-1 -54 -3 -388 -5 -744 -3 -357 -4 -648 -2 -648 2 0 26
6 53 14 181 52 308 40 483 -48 77 -38 209 -95 236 -101 5 -1 17 -5 25 -8 28
-11 112 -32 185 -45 49 -9 277 -9 327 -1 48 9 155 60 189 90 46 41 69 89 69
144 0 66 -25 106 -87 136 -45 22 -59 24 -228 25 -176 1 -182 1 -266 32 -47 17
-128 56 -180 87 -79 47 -125 66 -216 91 -10 3 -13 117 -13 529 0 289 -3 525
-6 525 -3 0 -13 -4 -22 -9 -17 -9 -29 -12 -127 -29 -104 -17 -264 -1 -367 38
l-48 18 0 -96z"/>
<path d="M3030 2320 l0 -260 795 0 795 0 0 260 0 260 -795 0 -795 0 0 -260z"/>
</g>
</svg>
